<?xml version="1.0" encoding="iso-8859-1"?>
<!-- Uploaded to: SVG Repo, www.svgrepo.com, Generator: SVG Repo Mixer Tools -->
<svg height="800px" width="800px" version="1.1" id="Layer_1" xmlns="http://www.w3.org/2000/svg" xmlns:xlink="http://www.w3.org/1999/xlink" 
	 viewBox="0 0 512 512" xml:space="preserve">
<g transform="translate(1 1)">
	<path style="fill:#FECC00;" d="M295.96,24.6v-8.533c0-5.12-3.413-8.533-7.68-8.533H179.053c-4.267,0-7.68,3.413-7.68,8.533V24.6
		H61.293c-8.533,0-15.36,7.68-15.36,17.067V485.4c0,9.387,6.827,17.067,15.36,17.067h343.893c8.533,0,15.36-7.68,15.36-17.067
		V41.667c0-9.387-6.827-17.067-15.36-17.067H295.96z"/>
	<path style="fill:#FFA800;" d="M419.693,24.6h-15.36c8.533,0,15.36,7.68,15.36,17.067V485.4c0,9.387-6.827,17.067-15.36,17.067
		h15.36c9.387,0,17.067-7.68,17.067-17.067V41.667C436.76,32.28,429.08,24.6,419.693,24.6"/>
	<path style="fill:#FFFFFF;" d="M45.933,485.4V41.667c0-9.387,6.827-17.067,15.36-17.067h-15.36c-9.387,0-17.067,7.68-17.067,17.067
		V485.4c0,9.387,7.68,17.067,17.067,17.067h15.36C52.76,502.467,45.933,494.787,45.933,485.4"/>
	<path style="fill:#FFA800;" d="M293.4,75.8H173.933c-5.12,0-8.533-3.413-8.533-8.533v-51.2c0-5.12,3.413-8.533,8.533-8.533H293.4
		c5.12,0,8.533,3.413,8.533,8.533v51.2C301.933,72.387,298.52,75.8,293.4,75.8"/>
	<path style="fill:#FFE100;" d="M301.933,58.733v8.533c0,5.12-3.413,8.533-8.533,8.533H173.933c-5.12,0-8.533-3.413-8.533-8.533
		v-8.533H71.533c-5.12,0-8.533,3.413-8.533,8.533V459.8c0,5.12,3.413,8.533,8.533,8.533H395.8c5.12,0,8.533-3.413,8.533-8.533
		V67.267c0-5.12-3.413-8.533-8.533-8.533H301.933z"/>
	<g>
		<path style="fill:#FECC00;" d="M191,246.467c0,14.507-11.093,25.6-25.6,25.6s-25.6-11.093-25.6-25.6
			c0-14.507,11.093-25.6,25.6-25.6S191,231.96,191,246.467"/>
		<path style="fill:#FECC00;" d="M327.533,246.467c0,14.507-11.093,25.6-25.6,25.6s-25.6-11.093-25.6-25.6
			c0-14.507,11.093-25.6,25.6-25.6S327.533,231.96,327.533,246.467"/>
		<path style="fill:#FECC00;" d="M348.013,186.733H119.32c-7.68,0-13.653,5.973-13.653,13.653v33.28
			c0,7.68,5.973,13.653,13.653,13.653h20.48c0-14.507,11.093-25.6,25.6-25.6s25.6,11.093,25.6,25.6h85.333
			c0-14.507,11.093-25.6,25.6-25.6s25.6,11.093,25.6,25.6h20.48c7.68,0,13.653-5.973,13.653-13.653v-33.28
			C361.667,192.707,355.693,186.733,348.013,186.733"/>
	</g>
	<path style="fill:#63D3FD;" d="M327.533,186.733H139.8l36.693-51.2c3.413-5.12,9.387-8.533,16.213-8.533h81.92
		c5.973,0,11.947,3.413,16.213,8.533L327.533,186.733z"/>
	<path style="fill:#3DB9F9;" d="M440.173,502.467c23.04,0,40.96-18.773,40.96-42.667c0-20.48-14.507-38.4-34.133-41.813
		c0-33.28-27.307-60.587-59.733-60.587c-4.267,0-8.533,0.853-11.947,1.707c26.453,5.973,46.933,29.867,47.787,58.88
		C441.88,421.4,457.24,439.32,457.24,459.8c0,23.04-18.773,42.667-40.96,42.667"/>
	<path style="fill:#63D3FD;" d="M427.373,417.987c0-33.28-27.307-60.587-59.733-60.587c12.8,0-19.627,11.947-29.867,29.867
		c-3.413-0.853-7.68-1.707-11.093-1.707c-17.92,0-32.427,12.8-35.84,29.867c-15.36,7.68-24.747,23.04-24.747,40.96
		c0,24.747,19.627,46.08,44.373,46.08h70.827c0.853,0,0.853,0,1.707,0c0.853,0,0.853,0,1.707,0H421.4
		c23.04,0,40.96-18.773,40.96-42.667C461.507,439.32,447,421.4,427.373,417.987"/>
	<path d="M438.467,511h-36.693c-0.853,0-0.853,0-1.707,0c-0.853,0-0.853,0-1.707,0h-91.307c-29.013,0-52.907-24.747-52.907-54.613
		c0-19.627,10.24-37.547,26.453-46.933c5.973-18.773,23.04-32.427,43.52-32.427c2.56,0,5.12,0,7.68,0.853
		c12.8-17.92,33.28-29.013,55.467-29.013c34.987,0,64,27.307,68.267,62.293c20.48,6.827,34.133,26.453,34.133,48.64
		C487.96,487.96,465.773,511,438.467,511z M400.067,493.933h1.707h36.693c17.92,0,32.427-15.36,32.427-34.133
		c0-16.213-11.093-30.72-26.453-33.28c-4.267-0.853-6.827-4.267-6.827-8.533c0-29.013-23.04-52.053-51.2-52.053
		c-17.92,0-34.987,9.387-44.373,25.6c-1.707,3.413-5.973,5.12-10.24,4.267c-2.56-0.853-5.973-1.707-8.533-1.707
		c-12.8,0-24.747,9.387-27.307,23.04c-0.853,2.56-2.56,5.12-4.267,5.973c-12.8,5.973-20.48,19.627-20.48,33.28
		c0,20.48,16.213,37.547,35.84,37.547h92.16C398.36,493.933,400.067,493.933,400.067,493.933z"/>
	<path d="M293.4,84.333H173.933c-9.387,0-17.067-7.68-17.067-17.067v-51.2C156.867,6.68,164.547-1,173.933-1H293.4
		c9.387,0,17.067,7.68,17.067,17.067v51.2C310.467,76.653,302.787,84.333,293.4,84.333z M293.4,67.267V75.8V67.267L293.4,67.267z
		 M173.933,16.067v51.2H293.4v-51.2H173.933z"/>
	<path d="M327.533,195.267H139.8c-3.413,0-5.973-1.707-7.68-4.267c-1.707-2.56-0.853-5.973,0.853-8.533l36.693-51.2
		c5.12-7.68,13.653-11.947,23.04-11.947h81.92c9.387,0,17.92,4.267,23.04,11.947l36.693,51.2c1.707,2.56,1.707,5.973,0.853,8.533
		C333.507,193.56,330.947,195.267,327.533,195.267z M156.013,178.2h154.453l-27.307-38.4c-1.707-2.56-5.12-4.267-9.387-4.267h-81.92
		c-3.413,0-6.827,1.707-9.387,4.267L156.013,178.2z"/>
	<path d="M165.4,280.6c-18.773,0-34.133-15.36-34.133-34.133s15.36-34.133,34.133-34.133s34.133,15.36,34.133,34.133
		S184.173,280.6,165.4,280.6z M165.4,229.4c-9.387,0-17.067,7.68-17.067,17.067s7.68,17.067,17.067,17.067
		s17.067-7.68,17.067-17.067S174.787,229.4,165.4,229.4z"/>
	<path d="M301.933,280.6c-18.773,0-34.133-15.36-34.133-34.133s15.36-34.133,34.133-34.133s34.133,15.36,34.133,34.133
		S320.707,280.6,301.933,280.6z M301.933,229.4c-9.387,0-17.067,7.68-17.067,17.067s7.68,17.067,17.067,17.067
		S319,255.853,319,246.467S311.32,229.4,301.933,229.4z"/>
	<path d="M348.013,255h-20.48c-5.12,0-8.533-3.413-8.533-8.533c0-9.387-7.68-17.067-17.067-17.067s-17.067,7.68-17.067,17.067
		c0,5.12-3.413,8.533-8.533,8.533H191c-5.12,0-8.533-3.413-8.533-8.533c0-9.387-7.68-17.067-17.067-17.067
		s-17.067,7.68-17.067,17.067c0,5.12-3.413,8.533-8.533,8.533h-20.48c-12.8,0-22.187-9.387-22.187-22.187v-33.28
		c0-11.947,9.387-22.187,22.187-22.187h229.547c11.947,0,22.187,9.387,22.187,22.187v33.28C370.2,245.613,360.813,255,348.013,255z
		 M335.213,237.933h13.653c2.56,0,5.12-2.56,5.12-5.12v-33.28c0-2.56-2.56-5.12-5.12-5.12H119.32c-2.56,0-5.12,2.56-5.12,5.12v33.28
		c0,2.56,2.56,5.12,5.12,5.12h13.653c3.413-14.507,17.067-25.6,33.28-25.6s29.013,11.093,33.28,25.6h70.827
		c3.413-14.507,17.067-25.6,33.28-25.6S330.947,223.427,335.213,237.933z"/>
	<path d="M233.667,340.333h-128c-5.12,0-8.533-3.413-8.533-8.533s3.413-8.533,8.533-8.533h128c5.12,0,8.533,3.413,8.533,8.533
		S238.787,340.333,233.667,340.333z"/>
	<path d="M233.667,383h-128c-5.12,0-8.533-3.413-8.533-8.533c0-5.12,3.413-8.533,8.533-8.533h128c5.12,0,8.533,3.413,8.533,8.533
		C242.2,379.587,238.787,383,233.667,383z"/>
	<path d="M233.667,425.667h-128c-5.12,0-8.533-3.413-8.533-8.533s3.413-8.533,8.533-8.533h128c5.12,0,8.533,3.413,8.533,8.533
		S238.787,425.667,233.667,425.667z"/>
	<path d="M233.667,195.267c-5.12,0-8.533-3.413-8.533-8.533V127c0-5.12,3.413-8.533,8.533-8.533c5.12,0,8.533,3.413,8.533,8.533
		v59.733C242.2,191.853,238.787,195.267,233.667,195.267z"/>
	<path d="M307.053,511H45.933c-14.507,0-25.6-11.093-25.6-25.6V41.667c0-14.507,11.093-25.6,25.6-25.6h110.933
		C156.867,6.68,164.547-1,173.933-1H293.4c9.387,0,17.067,7.68,17.067,17.067H421.4c14.507,0,25.6,11.093,25.6,25.6v347.307
		c0,4.267-2.56,7.68-6.827,8.533c-3.413,0.853-7.68-0.853-9.387-4.267c-9.387-17.067-26.453-27.307-44.373-27.307
		s-34.987,9.387-44.373,25.6c-1.707,3.413-5.973,5.12-10.24,3.413c-2.56-0.853-5.973-1.707-8.533-1.707
		c-12.8,0-24.747,9.387-27.307,23.04c-0.853,2.56-2.56,5.12-4.267,5.973c-12.8,5.973-20.48,19.627-20.48,33.28
		c0,20.48,16.213,37.547,35.84,37.547c5.12,0,8.533,3.413,8.533,8.533S311.32,511,307.053,511z M45.933,33.133
		c-5.12,0-8.533,3.413-8.533,8.533V485.4c0,5.12,3.413,8.533,8.533,8.533H267.8c-8.533-9.387-14.507-23.04-14.507-37.547
		c0-19.627,10.24-37.547,26.453-46.933c5.973-18.773,23.04-32.427,43.52-32.427c2.56,0,5.12,0,7.68,0.853
		c12.8-17.92,33.28-29.013,55.467-29.013c16.213,0,31.573,5.973,43.52,16.213V41.667c0-5.12-3.413-8.533-8.533-8.533H301.933
		c-5.12,0-8.533-3.413-8.533-8.533v-8.533H173.933V24.6c0,5.12-3.413,8.533-8.533,8.533H45.933z"/>
	<path d="M401.773,511h-3.413c-5.12,0-8.533-3.413-8.533-8.533c0-5.12,3.413-8.533,8.533-8.533h0.853c0,0,0.853,0,1.707,0l0,0l0,0
		c5.12,0,8.533,3.413,8.533,8.533C410.307,507.587,406.04,511,401.773,511L401.773,511L401.773,511z"/>
	<path d="M263.533,476.867h-192c-9.387,0-17.067-7.68-17.067-17.067V67.267c0-9.387,7.68-17.067,17.067-17.067H165.4
		c5.12,0,8.533,3.413,8.533,8.533v8.533H293.4v-8.533c0-5.12,3.413-8.533,8.533-8.533H395.8c9.387,0,17.067,7.68,17.067,17.067
		V359.96c0,2.56-1.707,5.12-3.413,6.827c-2.56,1.707-5.12,1.707-7.68,0.853c-5.12-1.707-10.24-2.56-15.36-2.56
		c-17.92,0-34.987,9.387-44.373,25.6c-1.707,3.413-5.973,5.12-10.24,3.413c-2.56-0.853-5.973-1.707-8.533-1.707
		c-12.8,0-24.747,9.387-27.307,23.04c-0.853,2.56-2.56,5.12-4.267,5.973c-12.8,5.973-20.48,19.627-20.48,33.28
		c0,2.56,0.853,5.973,1.707,9.387c0.853,2.56,0,5.12-1.707,7.68C268.653,476.013,266.947,476.867,263.533,476.867z M71.533,67.267
		V459.8h182.613c0-0.853,0-1.707,0-3.413c0-19.627,10.24-37.547,26.453-46.933c5.973-18.773,23.04-32.427,43.52-32.427
		c2.56,0,5.12,0,7.68,0.853c14.507-20.48,40.107-31.573,64.853-28.16V67.267h-86.187c0,9.387-7.68,17.067-17.067,17.067H173.933
		c-9.387,0-17.067-7.68-17.067-17.067H71.533z"/>
</g>
</svg>