<?xml version="1.0" encoding="iso-8859-1"?>
<!-- Uploaded to: SVG Repo, www.svgrepo.com, Generator: SVG Repo Mixer Tools -->
<svg height="800px" width="800px" version="1.1" id="Layer_1" xmlns="http://www.w3.org/2000/svg" xmlns:xlink="http://www.w3.org/1999/xlink" 
	 viewBox="0 0 512 512" xml:space="preserve">
<g transform="translate(1 1)">
	<path style="fill:#FECC00;" d="M294.253,24.6v-8.533c0-5.12-3.413-8.533-7.68-8.533H177.347c-4.267,0-7.68,3.413-7.68,8.533V24.6
		H59.587c-8.533,0-15.36,7.68-15.36,17.067V485.4c0,9.387,6.827,17.067,15.36,17.067h317.44c8.533,0,42.667-50.347,42.667-59.733
		V41.667c0-9.387-6.827-17.067-15.36-17.067H294.253z"/>
	<path style="fill:#FFA800;" d="M419.693,24.6h-15.36c8.533,0,15.36,7.68,15.36,17.067V434.2c0,9.387-6.827,17.067-15.36,17.067
		h15.36c9.387,0,17.067-7.68,17.067-17.067V41.667C436.76,32.28,429.08,24.6,419.693,24.6"/>
	<path style="fill:#FFFFFF;" d="M44.227,485.4V41.667c0-9.387,6.827-17.067,15.36-17.067h-15.36c-9.387,0-17.067,7.68-17.067,17.067
		V485.4c0,9.387,7.68,17.067,17.067,17.067h15.36C51.053,502.467,44.227,494.787,44.227,485.4"/>
	<path style="fill:#FFA800;" d="M291.693,75.8H172.227c-5.12,0-8.533-3.413-8.533-8.533v-51.2c0-5.12,3.413-8.533,8.533-8.533
		h119.467c5.12,0,8.533,3.413,8.533,8.533v51.2C300.227,72.387,296.813,75.8,291.693,75.8"/>
	<path style="fill:#FFE100;" d="M300.227,58.733v8.533c0,5.12-3.413,8.533-8.533,8.533H172.227c-5.12,0-8.533-3.413-8.533-8.533
		v-8.533H69.827c-5.12,0-8.533,3.413-8.533,8.533V459.8c0,5.12,3.413,8.533,8.533,8.533h324.267c5.12,0,8.533-3.413,8.533-8.533
		V67.267c0-5.12-3.413-8.533-8.533-8.533H300.227z"/>
	<g>
		<path style="fill:#FECC00;" d="M189.293,246.467c0,14.507-11.093,25.6-25.6,25.6c-14.507,0-25.6-11.093-25.6-25.6
			c0-14.507,11.093-25.6,25.6-25.6C178.2,220.867,189.293,231.96,189.293,246.467"/>
		<path style="fill:#FECC00;" d="M325.827,246.467c0,14.507-11.093,25.6-25.6,25.6c-14.507,0-25.6-11.093-25.6-25.6
			c0-14.507,11.093-25.6,25.6-25.6C314.733,220.867,325.827,231.96,325.827,246.467"/>
		<path style="fill:#FECC00;" d="M346.307,186.733H117.613c-7.68,0-13.653,5.973-13.653,13.653v33.28
			c0,7.68,5.973,13.653,13.653,13.653h20.48c0-14.507,11.093-25.6,25.6-25.6c14.507,0,25.6,11.093,25.6,25.6h85.333
			c0-14.507,11.093-25.6,25.6-25.6c14.507,0,25.6,11.093,25.6,25.6h20.48c7.68,0,13.653-5.973,13.653-13.653v-33.28
			C359.96,192.707,353.987,186.733,346.307,186.733"/>
	</g>
	<path style="fill:#63D3FD;" d="M325.827,186.733H138.093l36.693-51.2C178.2,130.413,184.173,127,191,127h81.92
		c5.973,0,11.947,3.413,16.213,8.533L325.827,186.733z"/>
	<path style="fill:#FECC00;" d="M479.427,381.293l-11.947-2.56c-17.92-3.413-26.453-24.747-15.36-40.107l7.68-10.24l-17.067-17.067
		l-10.24,6.827c-15.36,10.24-36.693,0.853-39.253-17.067l-2.56-11.947h-23.893l-3.413,16.213
		c-3.413,17.92-23.893,26.453-39.253,16.213l-13.653-9.387L293.4,329.24l7.68,10.24c11.093,15.36,2.56,36.693-15.36,40.107
		l-11.093,1.707v23.893l12.8,1.707c18.773,2.56,27.307,23.893,17.067,39.253l-6.827,10.24l17.067,17.067l10.24-7.68
		c15.36-11.093,36.693-2.56,40.107,15.36l2.56,11.947h23.893l1.707-9.387c2.56-18.773,24.747-28.16,40.107-16.213l7.68,5.12
		l17.067-17.067l-6.827-10.24c-10.24-15.36-0.853-36.693,17.067-39.253l12.8-1.707v-23.04H479.427z"/>
	<path style="fill:#FFE100;" d="M411.16,391.533c0,18.773-15.36,34.133-34.133,34.133s-34.133-15.36-34.133-34.133
		s15.36-34.133,34.133-34.133S411.16,372.76,411.16,391.533"/>
	<path d="M390.68,511h-23.893c-4.267,0-7.68-2.56-8.533-6.827l-2.56-11.947c-0.853-5.973-5.12-10.24-10.24-12.8
		c-5.12-2.56-11.093-1.707-16.213,1.707l-10.24,7.68c-3.413,2.56-8.533,1.707-11.093-0.853l-17.067-17.067
		c-2.56-2.56-3.413-7.68-0.853-11.093l6.827-10.24c3.413-5.12,4.267-11.093,1.707-16.213c-2.56-5.12-6.827-9.387-12.8-10.24
		l-12.8-1.707c-4.267-0.853-6.827-4.267-6.827-8.533v-23.893c0-4.267,2.56-7.68,6.827-8.533l11.947-2.56
		c5.973-0.853,10.24-5.12,12.8-10.24c2.56-5.12,1.707-11.093-1.707-16.213l-7.68-10.24c-2.56-3.413-1.707-8.533,0.853-11.093
		l17.067-17.067c2.56-2.56,7.68-3.413,11.093-0.853l13.653,9.387c5.12,3.413,10.24,3.413,16.213,1.707
		c5.12-2.56,9.387-6.827,10.24-12.8l3.413-16.213c0.853-4.267,4.267-6.827,8.533-6.827h23.893c4.267,0,7.68,3.413,8.533,6.827
		l1.707,12.8c0.853,5.973,4.267,10.24,10.24,12.8c5.12,2.56,11.093,1.707,16.213-1.707l10.24-6.827
		c3.413-2.56,7.68-1.707,11.093,0.853l17.067,17.067c2.56,2.56,3.413,7.68,0.853,11.093l-7.68,10.24
		c-3.413,5.12-4.267,10.24-1.707,16.213c2.56,5.12,6.827,9.387,12.8,10.24l11.947,2.56c4.267,0.853,6.827,4.267,6.827,8.533v23.893
		c0,4.267-3.413,7.68-6.827,8.533l-12.8,1.707c-5.973,0.853-10.24,4.267-12.8,10.24c-2.56,5.12-1.707,11.093,1.707,16.213
		l6.827,10.24c2.56,3.413,1.707,7.68-0.853,11.093l-17.067,17.067c-2.56,2.56-7.68,3.413-11.093,0.853l-7.68-5.12
		c-5.12-3.413-11.093-4.267-16.213-1.707c-5.12,2.56-9.387,6.827-10.24,12.8l-1.707,9.387C398.36,507.587,394.947,511,390.68,511z
		 M374.467,493.933h9.387v-1.707c1.707-11.947,9.387-21.333,20.48-26.453c11.093-4.267,23.04-3.413,33.28,4.267l1.707,0.853
		l6.827-6.827l-4.267-4.267c-6.827-9.387-7.68-22.187-3.413-32.427c4.267-11.093,14.507-17.92,25.6-19.627l5.973-0.853v-9.387
		l-5.12-0.853c-11.093-2.56-20.48-10.24-24.747-20.48c-4.267-11.093-2.56-23.04,4.267-32.427l3.413-4.267l-6.827-7.68l-4.267,3.413
		c-9.387,6.827-22.187,7.68-32.427,3.413c-10.24-4.267-17.92-14.507-19.627-25.6l-0.853-6.827h-9.387l-1.707,9.387
		c-2.56,11.093-9.387,20.48-20.48,24.747c-10.24,4.267-22.187,3.413-31.573-3.413l-7.68-5.12l-6.827,6.827l3.413,4.267
		c6.827,9.387,8.533,21.333,4.267,32.427s-13.653,18.773-24.747,20.48l-5.973,1.707v9.387l5.973,0.853
		c11.947,1.707,21.333,9.387,25.6,19.627c4.267,11.093,3.413,23.04-3.413,32.427l-2.56,4.267l6.827,6.827l4.267-3.413
		c9.387-6.827,21.333-8.533,32.427-4.267c11.093,4.267,18.773,13.653,20.48,24.747L374.467,493.933z"/>
	<path d="M377.027,442.733c-23.893,0-42.667-18.773-42.667-42.667c0-23.893,18.773-42.667,42.667-42.667
		c23.893,0,42.667,18.773,42.667,42.667C419.693,423.96,400.92,442.733,377.027,442.733z M377.027,374.467
		c-14.507,0-25.6,11.093-25.6,25.6c0,14.507,11.093,25.6,25.6,25.6c14.507,0,25.6-11.093,25.6-25.6
		C402.627,385.56,391.533,374.467,377.027,374.467z"/>
	<path d="M291.693,84.333H172.227c-9.387,0-17.067-7.68-17.067-17.067v-51.2C155.16,6.68,162.84-1,172.227-1h119.467
		c9.387,0,17.067,7.68,17.067,17.067v51.2C308.76,76.653,301.08,84.333,291.693,84.333z M291.693,67.267V75.8V67.267L291.693,67.267
		z M172.227,16.067v51.2h119.467v-51.2H172.227z"/>
	<path d="M325.827,195.267H138.093c-3.413,0-5.973-1.707-7.68-4.267c-1.707-2.56-0.853-5.973,0.853-8.533l36.693-51.2
		c5.12-7.68,13.653-11.947,23.04-11.947h81.92c9.387,0,17.92,4.267,23.04,11.947l36.693,51.2c1.707,2.56,1.707,5.973,0.853,8.533
		C331.8,193.56,329.24,195.267,325.827,195.267z M154.307,178.2H308.76l-27.307-38.4c-1.707-2.56-5.12-4.267-9.387-4.267h-81.92
		c-3.413,0-6.827,1.707-9.387,4.267L154.307,178.2z"/>
	<path d="M163.693,280.6c-18.773,0-34.133-15.36-34.133-34.133s15.36-34.133,34.133-34.133s34.133,15.36,34.133,34.133
		S182.467,280.6,163.693,280.6z M163.693,229.4c-9.387,0-17.067,7.68-17.067,17.067s7.68,17.067,17.067,17.067
		c9.387,0,17.067-7.68,17.067-17.067S173.08,229.4,163.693,229.4z"/>
	<path d="M300.227,280.6c-18.773,0-34.133-15.36-34.133-34.133s15.36-34.133,34.133-34.133s34.133,15.36,34.133,34.133
		S319,280.6,300.227,280.6z M300.227,229.4c-9.387,0-17.067,7.68-17.067,17.067s7.68,17.067,17.067,17.067
		s17.067-7.68,17.067-17.067S309.613,229.4,300.227,229.4z"/>
	<path d="M346.307,255h-20.48c-5.12,0-8.533-3.413-8.533-8.533c0-9.387-7.68-17.067-17.067-17.067s-17.067,7.68-17.067,17.067
		c0,5.12-3.413,8.533-8.533,8.533h-85.333c-5.12,0-8.533-3.413-8.533-8.533c0-9.387-7.68-17.067-17.067-17.067
		c-9.387,0-17.067,7.68-17.067,17.067c0,5.12-3.413,8.533-8.533,8.533h-20.48c-12.8,0-22.187-9.387-22.187-22.187v-33.28
		c0-11.947,9.387-22.187,22.187-22.187H347.16c11.947,0,22.187,9.387,22.187,22.187v33.28C368.493,245.613,359.107,255,346.307,255z
		 M333.507,237.933h13.653c2.56,0,5.12-2.56,5.12-5.12v-33.28c0-2.56-2.56-5.12-5.12-5.12H117.613c-2.56,0-5.12,2.56-5.12,5.12
		v33.28c0,2.56,2.56,5.12,5.12,5.12h13.653c3.413-14.507,17.067-25.6,33.28-25.6s29.013,11.093,33.28,25.6h70.827
		c3.413-14.507,17.067-25.6,33.28-25.6C318.147,212.333,329.24,223.427,333.507,237.933z"/>
	<path d="M231.96,340.333h-128c-5.12,0-8.533-3.413-8.533-8.533s3.413-8.533,8.533-8.533h128c5.12,0,8.533,3.413,8.533,8.533
		S237.08,340.333,231.96,340.333z"/>
	<path d="M231.96,383h-128c-5.12,0-8.533-3.413-8.533-8.533c0-5.12,3.413-8.533,8.533-8.533h128c5.12,0,8.533,3.413,8.533,8.533
		C240.493,379.587,237.08,383,231.96,383z"/>
	<path d="M231.96,425.667h-128c-5.12,0-8.533-3.413-8.533-8.533s3.413-8.533,8.533-8.533h128c5.12,0,8.533,3.413,8.533,8.533
		S237.08,425.667,231.96,425.667z"/>
	<path d="M231.96,195.267c-5.12,0-8.533-3.413-8.533-8.533V127c0-5.12,3.413-8.533,8.533-8.533s8.533,3.413,8.533,8.533v59.733
		C240.493,191.853,237.08,195.267,231.96,195.267z"/>
	<path d="M366.787,511H44.227c-14.507,0-25.6-11.093-25.6-25.6V41.667c0-14.507,11.093-25.6,25.6-25.6H155.16
		C155.16,6.68,162.84-1,172.227-1h119.467c9.387,0,17.067,7.68,17.067,17.067h110.933c14.507,0,25.6,11.093,25.6,25.6v283.307
		c0,2.56-1.707,5.12-3.413,6.827l-5.12,3.413c-9.387,6.827-22.187,7.68-32.427,3.413c-10.24-4.267-17.92-14.507-19.627-25.6
		l-0.853-6.827h-9.387l-1.707,9.387c-2.56,11.093-9.387,20.48-20.48,24.747c-10.24,4.267-22.187,3.413-31.573-3.413l-7.68-5.12
		l-6.827,6.827l3.413,4.267c6.827,9.387,8.533,21.333,4.267,32.427s-13.653,18.773-24.747,20.48l-5.973,1.707v9.387l5.973,0.853
		c11.947,1.707,21.333,9.387,25.6,19.627c4.267,11.093,3.413,23.04-3.413,32.427l-2.56,4.267l6.827,6.827l4.267-3.413
		c9.387-6.827,21.333-8.533,32.427-4.267c11.093,4.267,18.773,13.653,20.48,24.747l2.56,11.947c0.853,2.56,0,5.12-1.707,6.827
		C371.907,510.147,369.347,511,366.787,511z M44.227,33.133c-5.12,0-8.533,3.413-8.533,8.533V485.4c0,5.12,3.413,8.533,8.533,8.533
		h312.32v-2.56c-0.853-5.973-5.12-10.24-10.24-12.8c-5.12-2.56-11.093-1.707-16.213,1.707l0,0l-10.24,7.68
		c-3.413,2.56-7.68,1.707-11.093-0.853l-17.067-17.067c-2.56-2.56-3.413-7.68-0.853-11.093l6.827-10.24
		c3.413-5.12,4.267-11.093,1.707-16.213c-2.56-5.12-6.827-9.387-12.8-10.24l-12.8-1.707c-4.267-0.853-6.827-4.267-6.827-8.533
		V388.12c0-4.267,2.56-7.68,6.827-8.533l11.947-2.56c5.973-0.853,10.24-5.12,12.8-10.24c2.56-5.12,1.707-11.093-1.707-16.213
		l-7.68-10.24c-2.56-3.413-2.56-8.533,0.853-11.093l17.067-17.067c2.56-2.56,7.68-3.413,11.093-0.853l13.653,9.387
		c5.12,3.413,10.24,3.413,16.213,1.707c5.12-2.56,9.387-6.827,10.24-12.8l3.413-16.213c0.853-4.267,4.267-6.827,8.533-6.827h23.893
		c4.267,0,7.68,3.413,8.533,6.827l1.707,12.8c0.853,5.973,4.267,10.24,10.24,12.8c5.12,2.56,11.093,1.707,16.213-1.707l0.853-0.853
		V41.667c0-5.12-3.413-8.533-8.533-8.533h-122.88c-5.12,0-8.533-3.413-8.533-8.533v-8.533H172.227V24.6
		c0,5.12-3.413,8.533-8.533,8.533H44.227z M324.973,474.307L324.973,474.307L324.973,474.307z"/>
	<path d="M300.227,476.867h-230.4c-9.387,0-17.067-7.68-17.067-17.067V67.267c0-9.387,7.68-17.067,17.067-17.067h93.867
		c5.12,0,8.533,3.413,8.533,8.533v8.533h119.467v-8.533c0-5.12,3.413-8.533,8.533-8.533h93.867c9.387,0,17.067,7.68,17.067,17.067
		V326.68c0,3.413-1.707,5.973-5.12,7.68c-2.56,1.707-5.973,0.853-8.533-0.853c-6.827-5.12-11.947-12.8-12.8-22.187l-0.853-5.12
		h-9.387l-1.707,9.387c-2.56,11.093-9.387,20.48-20.48,24.747c-10.24,4.267-22.187,3.413-31.573-3.413l-7.68-5.12l-6.827,6.827
		l3.413,4.267c6.827,9.387,8.533,21.333,4.267,32.427s-13.653,18.773-24.747,20.48l-5.973,1.707v9.387l5.973,0.853
		c11.947,1.707,21.333,9.387,25.6,19.627c4.267,11.093,3.413,23.04-3.413,32.427l-3.413,5.12c0.853,1.707,0.853,4.267,0,6.827
		C307.053,475.16,303.64,476.867,300.227,476.867z M69.827,67.267V459.8H290.84l6.827-9.387c3.413-5.12,4.267-11.093,1.707-16.213
		c-2.56-5.12-6.827-9.387-12.8-10.24l-12.8-1.707c-4.267-0.853-6.827-4.267-6.827-8.533v-23.893c0-4.267,2.56-7.68,6.827-8.533
		l11.947-2.56c5.973-0.853,10.24-5.12,12.8-10.24c2.56-5.12,1.707-11.093-1.707-16.213l-7.68-10.24
		c-2.56-3.413-1.707-7.68,0.853-11.093l17.067-17.067c2.56-2.56,7.68-3.413,11.093-0.853l13.653,9.387
		c5.12,3.413,10.24,3.413,16.213,1.707c5.12-2.56,9.387-6.827,10.24-12.8l3.413-16.213c0.853-4.267,4.267-6.827,8.533-6.827h23.893
		c0.853,0,2.56,0,3.413,0.853V67.267H308.76c0,9.387-7.68,17.067-17.067,17.067H172.227c-9.387,0-17.067-7.68-17.067-17.067H69.827z
		"/>
</g>
</svg>