<?xml version="1.0" encoding="iso-8859-1"?>
<!-- Uploaded to: SVG Repo, www.svgrepo.com, Generator: SVG Repo Mixer Tools -->
<svg height="800px" width="800px" version="1.1" id="Layer_1" xmlns="http://www.w3.org/2000/svg" xmlns:xlink="http://www.w3.org/1999/xlink" 
	 viewBox="0 0 512 512" xml:space="preserve">
<g transform="translate(1 1)">
	<path style="fill:#FECC00;" d="M297.88,24.6v-8.533c0-5.12-3.413-8.533-7.68-8.533H180.973c-4.267,0-7.68,3.413-7.68,8.533V24.6
		H63.213c-8.533,0-15.36,7.68-15.36,17.067V485.4c0,9.387,6.827,17.067,15.36,17.067h343.893c8.533,0,15.36-7.68,15.36-17.067
		V41.667c0-9.387-6.827-17.067-15.36-17.067H297.88z"/>
	<path style="fill:#FFA800;" d="M421.613,24.6h-15.36c8.533,0,15.36,7.68,15.36,17.067V408.6c0,9.387-6.827,17.067-15.36,17.067
		h15.36c9.387,0,17.067-7.68,17.067-17.067V41.667C438.68,32.28,431,24.6,421.613,24.6"/>
	<path style="fill:#FFFFFF;" d="M47.853,485.4V41.667c0-9.387,6.827-17.067,15.36-17.067h-15.36c-9.387,0-17.067,7.68-17.067,17.067
		V485.4c0,9.387,7.68,17.067,17.067,17.067h15.36C54.68,502.467,47.853,494.787,47.853,485.4"/>
	<path style="fill:#FFA800;" d="M295.32,75.8H175.853c-5.12,0-8.533-3.413-8.533-8.533v-51.2c0-5.12,3.413-8.533,8.533-8.533H295.32
		c5.12,0,8.533,3.413,8.533,8.533v51.2C303.853,72.387,300.44,75.8,295.32,75.8"/>
	<path style="fill:#FFE100;" d="M303.853,58.733v8.533c0,5.12-3.413,8.533-8.533,8.533H175.853c-5.12,0-8.533-3.413-8.533-8.533
		v-8.533H73.453c-5.12,0-8.533,3.413-8.533,8.533V459.8c0,5.12,3.413,8.533,8.533,8.533H397.72c5.12,0,8.533-3.413,8.533-8.533
		V67.267c0-5.12-3.413-8.533-8.533-8.533H303.853z"/>
	<path id="SVGCleanerId_0" style="fill:#FECC00;" d="M192.92,246.467c0,14.507-11.093,25.6-25.6,25.6
		c-14.507,0-25.6-11.093-25.6-25.6c0-14.507,11.093-25.6,25.6-25.6S192.92,231.96,192.92,246.467"/>
	<path id="SVGCleanerId_1" style="fill:#FECC00;" d="M329.453,246.467c0,14.507-11.093,25.6-25.6,25.6
		c-14.507,0-25.6-11.093-25.6-25.6c0-14.507,11.093-25.6,25.6-25.6C318.36,220.867,329.453,231.96,329.453,246.467"/>
	<path id="SVGCleanerId_2" style="fill:#FECC00;" d="M349.933,186.733H121.24c-7.68,0-13.653,5.973-13.653,13.653v33.28
		c0,7.68,5.973,13.653,13.653,13.653h20.48c0-14.507,11.093-25.6,25.6-25.6s25.6,11.093,25.6,25.6h85.333
		c0-14.507,11.093-25.6,25.6-25.6c14.507,0,25.6,11.093,25.6,25.6h20.48c7.68,0,13.653-5.973,13.653-13.653v-33.28
		C363.587,192.707,357.613,186.733,349.933,186.733"/>
	<path id="SVGCleanerId_3" style="fill:#63D3FD;" d="M329.453,186.733H141.72l36.693-51.2c3.413-5.12,9.387-8.533,16.213-8.533
		h81.92c5.973,0,11.947,3.413,16.213,8.533L329.453,186.733z"/>
	<g>
		<path id="SVGCleanerId_0_1_" style="fill:#FECC00;" d="M192.92,246.467c0,14.507-11.093,25.6-25.6,25.6
			c-14.507,0-25.6-11.093-25.6-25.6c0-14.507,11.093-25.6,25.6-25.6S192.92,231.96,192.92,246.467"/>
	</g>
	<g>
		<path id="SVGCleanerId_1_1_" style="fill:#FECC00;" d="M329.453,246.467c0,14.507-11.093,25.6-25.6,25.6
			c-14.507,0-25.6-11.093-25.6-25.6c0-14.507,11.093-25.6,25.6-25.6C318.36,220.867,329.453,231.96,329.453,246.467"/>
	</g>
	<g>
		<path id="SVGCleanerId_2_1_" style="fill:#FECC00;" d="M349.933,186.733H121.24c-7.68,0-13.653,5.973-13.653,13.653v33.28
			c0,7.68,5.973,13.653,13.653,13.653h20.48c0-14.507,11.093-25.6,25.6-25.6s25.6,11.093,25.6,25.6h85.333
			c0-14.507,11.093-25.6,25.6-25.6c14.507,0,25.6,11.093,25.6,25.6h20.48c7.68,0,13.653-5.973,13.653-13.653v-33.28
			C363.587,192.707,357.613,186.733,349.933,186.733"/>
	</g>
	<g>
		<path id="SVGCleanerId_3_1_" style="fill:#63D3FD;" d="M329.453,186.733H141.72l36.693-51.2c3.413-5.12,9.387-8.533,16.213-8.533
			h81.92c5.973,0,11.947,3.413,16.213,8.533L329.453,186.733z"/>
	</g>
	<path style="fill:#FECC00;" d="M479.64,431.64l-0.853,1.707c-60.587,93.013-160.427,93.013-221.013,0l0,0l0.853-1.707
		C319.213,338.627,419.053,338.627,479.64,431.64L479.64,431.64z"/>
	<path style="fill:#63D3FD;" d="M417.347,412.013c0,28.16-22.187,50.347-50.347,50.347s-50.347-22.187-50.347-50.347
		S338.84,361.667,367,361.667C394.307,361.667,417.347,383.853,417.347,412.013"/>
	<path d="M367.853,511c-45.227,0-86.187-26.453-117.76-73.387c-1.707-2.56-1.707-6.827,0-9.387l0.853-1.707
		c30.72-47.787,72.533-73.387,117.76-73.387s86.187,26.453,117.76,73.387c1.707,2.56,1.707,6.827,0,9.387l-0.853,1.707
		C454.893,484.547,413.08,511,367.853,511z M268.013,432.493c27.307,40.107,63.147,61.44,99.84,61.44
		c37.547,0,73.387-22.187,100.693-62.293c-27.307-39.253-63.147-61.44-99.84-61.44C331.16,370.2,295.32,392.387,268.013,432.493z"/>
	<path d="M367,470.893c-32.427,0-58.88-26.453-58.88-58.88s26.453-58.88,58.88-58.88s58.88,26.453,58.88,58.88
		S399.427,470.893,367,470.893z M367,370.2c-23.04,0-41.813,18.773-41.813,41.813S343.96,453.827,367,453.827
		s41.813-18.773,41.813-41.813S390.04,370.2,367,370.2z"/>
	<path d="M295.32,84.333H175.853c-9.387,0-17.067-7.68-17.067-17.067v-51.2C158.787,6.68,166.467-1,175.853-1H295.32
		c9.387,0,17.067,7.68,17.067,17.067v51.2C312.387,76.653,304.707,84.333,295.32,84.333z M295.32,67.267V75.8V67.267L295.32,67.267z
		 M175.853,16.067v51.2H295.32v-51.2H175.853z"/>
	<path d="M329.453,195.267H141.72c-3.413,0-5.973-1.707-7.68-4.267c-1.707-2.56-0.853-5.973,0.853-8.533l36.693-51.2
		c5.12-7.68,13.653-11.947,23.04-11.947h81.92c9.387,0,17.92,4.267,23.04,11.947l36.693,51.2c1.707,2.56,1.707,5.973,0.853,8.533
		C335.427,193.56,332.867,195.267,329.453,195.267z M157.933,178.2h154.453l-27.307-38.4c-1.707-2.56-5.12-4.267-9.387-4.267h-81.92
		c-3.413,0-6.827,1.707-9.387,4.267L157.933,178.2z"/>
	<path d="M167.32,280.6c-18.773,0-34.133-15.36-34.133-34.133s15.36-34.133,34.133-34.133s34.133,15.36,34.133,34.133
		S186.093,280.6,167.32,280.6z M167.32,229.4c-9.387,0-17.067,7.68-17.067,17.067s7.68,17.067,17.067,17.067
		c9.387,0,17.067-7.68,17.067-17.067S176.707,229.4,167.32,229.4z"/>
	<path d="M303.853,280.6c-18.773,0-34.133-15.36-34.133-34.133s15.36-34.133,34.133-34.133s34.133,15.36,34.133,34.133
		S322.627,280.6,303.853,280.6z M303.853,229.4c-9.387,0-17.067,7.68-17.067,17.067s7.68,17.067,17.067,17.067
		s17.067-7.68,17.067-17.067S313.24,229.4,303.853,229.4z"/>
	<path d="M349.933,255h-20.48c-5.12,0-8.533-3.413-8.533-8.533c0-9.387-7.68-17.067-17.067-17.067s-17.067,7.68-17.067,17.067
		c0,5.12-3.413,8.533-8.533,8.533H192.92c-5.12,0-8.533-3.413-8.533-8.533c0-9.387-7.68-17.067-17.067-17.067
		c-9.387,0-17.067,7.68-17.067,17.067c0,5.12-3.413,8.533-8.533,8.533h-20.48c-12.8,0-22.187-9.387-22.187-22.187v-33.28
		c0-11.947,9.387-22.187,22.187-22.187h229.547c11.947,0,22.187,9.387,22.187,22.187v33.28C372.12,245.613,362.733,255,349.933,255z
		 M337.133,237.933h13.653c2.56,0,5.12-2.56,5.12-5.12v-33.28c0-2.56-2.56-5.12-5.12-5.12H121.24c-2.56,0-5.12,2.56-5.12,5.12v33.28
		c0,2.56,2.56,5.12,5.12,5.12h13.653c3.413-14.507,17.067-25.6,33.28-25.6s29.013,11.093,33.28,25.6h70.827
		c3.413-14.507,17.067-25.6,33.28-25.6C321.773,212.333,332.867,223.427,337.133,237.933z"/>
	<path d="M227.053,340.333H107.587c-5.12,0-8.533-3.413-8.533-8.533s3.413-8.533,8.533-8.533h119.467
		c5.12,0,8.533,3.413,8.533,8.533S232.173,340.333,227.053,340.333z"/>
	<path d="M227.053,383H107.587c-5.12,0-8.533-3.413-8.533-8.533c0-5.12,3.413-8.533,8.533-8.533h119.467
		c5.12,0,8.533,3.413,8.533,8.533C235.587,379.587,232.173,383,227.053,383z"/>
	<path d="M227.053,425.667H107.587c-5.12,0-8.533-3.413-8.533-8.533s3.413-8.533,8.533-8.533h119.467
		c5.12,0,8.533,3.413,8.533,8.533S232.173,425.667,227.053,425.667z"/>
	<path d="M235.587,195.267c-5.12,0-8.533-3.413-8.533-8.533V127c0-5.12,3.413-8.533,8.533-8.533s8.533,3.413,8.533,8.533v59.733
		C244.12,191.853,240.707,195.267,235.587,195.267z"/>
	<path d="M367.853,511h-320c-14.507,0-25.6-11.093-25.6-25.6V41.667c0-14.507,11.093-25.6,25.6-25.6h110.933
		C158.787,6.68,166.467-1,175.853-1H295.32c9.387,0,17.067,7.68,17.067,17.067H423.32c14.507,0,25.6,11.093,25.6,25.6V388.12
		c0,3.413-1.707,5.973-5.12,7.68c-2.56,1.707-6.827,0.853-9.387-0.853c-25.6-19.627-53.76-27.307-81.92-23.04
		c-31.573,5.12-62.293,27.307-85.333,61.44c28.16,39.253,64,60.587,100.693,60.587c5.12,0,8.533,3.413,8.533,8.533
		C376.387,507.587,372.973,511,367.853,511z M47.853,33.133c-5.12,0-8.533,3.413-8.533,8.533V485.4c0,5.12,3.413,8.533,8.533,8.533
		h259.413c-21.333-12.8-40.107-31.573-57.173-56.32c-1.707-2.56-1.707-6.827,0-9.387l0.853-1.707
		c26.453-40.107,61.44-65.707,98.987-71.68c28.16-4.267,55.467,0.853,81.067,17.067V41.667c0-5.12-3.413-8.533-8.533-8.533H303.853
		c-5.12,0-8.533-3.413-8.533-8.533v-8.533H175.853V24.6c0,5.12-3.413,8.533-8.533,8.533H47.853z"/>
	<path d="M287.64,476.867H73.453c-9.387,0-17.067-7.68-17.067-17.067V67.267c0-9.387,7.68-17.067,17.067-17.067h93.867
		c5.12,0,8.533,3.413,8.533,8.533v8.533H295.32v-8.533c0-5.12,3.413-8.533,8.533-8.533h93.867c9.387,0,17.067,7.68,17.067,17.067
		v301.227c0,2.56-1.707,5.12-3.413,6.827c-2.56,1.707-5.12,1.707-7.68,0.853c-48.64-17.92-98.987,3.413-135.68,56.32
		c7.68,11.093,16.213,20.48,25.6,29.013c2.56,2.56,3.413,5.973,2.56,9.387C295.32,474.307,291.053,476.867,287.64,476.867z
		 M73.453,67.267V459.8H267.16c-5.973-6.827-11.947-14.507-17.067-22.187c-1.707-2.56-1.707-6.827,0-9.387l0.853-1.707
		c37.547-58.027,93.013-83.627,145.92-69.973V67.267h-84.48c0,9.387-7.68,17.067-17.067,17.067H175.853
		c-9.387,0-17.067-7.68-17.067-17.067H73.453z"/>
</g>
</svg>