<?xml version="1.0" encoding="iso-8859-1"?>
<!-- Uploaded to: SVG Repo, www.svgrepo.com, Generator: SVG Repo Mixer Tools -->
<svg height="800px" width="800px" version="1.1" id="Layer_1" xmlns="http://www.w3.org/2000/svg" xmlns:xlink="http://www.w3.org/1999/xlink" 
	 viewBox="0 0 512 512" xml:space="preserve">
<g transform="translate(1 1)">
	<path style="fill:#FECC00;" d="M295.96,24.6v-8.533c0-5.12-3.413-8.533-7.68-8.533H179.053c-4.267,0-7.68,3.413-7.68,8.533V24.6
		H61.293c-8.533,0-15.36,7.68-15.36,17.067V485.4c0,9.387,6.827,17.067,15.36,17.067H395.8c8.533,0,25.6-58.88,25.6-68.267V41.667
		c0-9.387-6.827-17.067-15.36-17.067H295.96z"/>
	<path style="fill:#FFA800;" d="M421.4,24.6h-15.36c8.533,0,15.36,7.68,15.36,17.067v358.4c0,9.387-6.827,17.067-15.36,17.067h15.36
		c9.387,0,17.067-7.68,17.067-17.067v-358.4C438.467,32.28,430.787,24.6,421.4,24.6"/>
	<path style="fill:#FFFFFF;" d="M45.933,485.4V41.667c0-9.387,6.827-17.067,15.36-17.067h-15.36c-9.387,0-17.067,7.68-17.067,17.067
		V485.4c0,9.387,7.68,17.067,17.067,17.067h15.36C52.76,502.467,45.933,494.787,45.933,485.4"/>
	<path style="fill:#FFA800;" d="M293.4,75.8H173.933c-5.12,0-8.533-3.413-8.533-8.533v-51.2c0-5.12,3.413-8.533,8.533-8.533H293.4
		c5.12,0,8.533,3.413,8.533,8.533v51.2C301.933,72.387,298.52,75.8,293.4,75.8"/>
	<path style="fill:#FFE100;" d="M301.933,58.733v8.533c0,5.12-3.413,8.533-8.533,8.533H173.933c-5.12,0-8.533-3.413-8.533-8.533
		v-8.533H71.533c-5.12,0-8.533,3.413-8.533,8.533V459.8c0,5.12,3.413,8.533,8.533,8.533H395.8c5.12,0,8.533-3.413,8.533-8.533
		V67.267c0-5.12-3.413-8.533-8.533-8.533H301.933z"/>
	<g>
		<path style="fill:#FECC00;" d="M191,246.467c0,14.507-11.093,25.6-25.6,25.6c-14.507,0-25.6-11.093-25.6-25.6
			c0-14.507,11.093-25.6,25.6-25.6C179.907,220.867,191,231.96,191,246.467"/>
		<path style="fill:#FECC00;" d="M327.533,246.467c0,14.507-11.093,25.6-25.6,25.6c-14.507,0-25.6-11.093-25.6-25.6
			c0-14.507,11.093-25.6,25.6-25.6C316.44,220.867,327.533,231.96,327.533,246.467"/>
		<path style="fill:#FECC00;" d="M348.013,186.733H119.32c-7.68,0-13.653,5.973-13.653,13.653v33.28
			c0,7.68,5.973,13.653,13.653,13.653h20.48c0-14.507,11.093-25.6,25.6-25.6c14.507,0,25.6,11.093,25.6,25.6h85.333
			c0-14.507,11.093-25.6,25.6-25.6c14.507,0,25.6,11.093,25.6,25.6h20.48c7.68,0,13.653-5.973,13.653-13.653v-33.28
			C361.667,192.707,355.693,186.733,348.013,186.733"/>
	</g>
	<path style="fill:#63D3FD;" d="M327.533,186.733H139.8l36.693-51.2c3.413-5.12,9.387-8.533,16.213-8.533h81.92
		c5.973,0,11.947,3.413,16.213,8.533L327.533,186.733z"/>
	<path style="fill:#3DB9F9;" d="M368.493,301.08c-2.56,0-4.267,0-6.827,0c36.693,3.413,64.853,39.253,64.853,83.627
		s-28.16,79.36-64.853,83.627c2.56,0,4.267,0,6.827,0c46.08,0,83.627-37.547,83.627-83.627S414.573,301.08,368.493,301.08"/>
	<path style="fill:#63D3FD;" d="M429.933,384.707c0,46.08-32.427,83.627-72.533,83.627s-72.533-37.547-72.533-83.627
		s32.427-83.627,72.533-83.627S429.933,338.627,429.933,384.707"/>
	<path d="M370.2,476.867c-52.053,0-93.867-41.813-93.867-93.867s41.813-93.867,93.867-93.867s93.867,41.813,93.867,93.867
		S422.253,476.867,370.2,476.867z M370.2,306.2c-42.667,0-76.8,34.133-76.8,76.8s34.133,76.8,76.8,76.8S447,425.667,447,383
		S412.867,306.2,370.2,306.2z"/>
	<path d="M481.133,511c-2.56,0-4.267-0.853-5.973-2.56l-49.493-52.907c-3.413-3.413-3.413-8.533,0-11.947
		c3.413-3.413,8.533-3.413,11.947,0l49.493,52.907c3.413,3.413,3.413,8.533,0,11.947C485.4,510.147,482.84,511,481.133,511z"/>
	<path d="M293.4,84.333H173.933c-9.387,0-17.067-7.68-17.067-17.067v-51.2C156.867,6.68,164.547-1,173.933-1H293.4
		c9.387,0,17.067,7.68,17.067,17.067v51.2C310.467,76.653,302.787,84.333,293.4,84.333z M293.4,67.267V75.8V67.267L293.4,67.267z
		 M173.933,16.067v51.2H293.4v-51.2H173.933z"/>
	<path d="M327.533,195.267H139.8c-3.413,0-5.973-1.707-7.68-4.267c-1.707-2.56-0.853-5.973,0.853-8.533l36.693-51.2
		c5.12-7.68,13.653-11.947,23.04-11.947h81.92c9.387,0,17.92,4.267,23.04,11.947l36.693,51.2c1.707,2.56,1.707,5.973,0.853,8.533
		C333.507,193.56,330.947,195.267,327.533,195.267z M156.013,178.2h154.453l-27.307-38.4c-1.707-2.56-5.12-4.267-9.387-4.267h-81.92
		c-3.413,0-6.827,1.707-9.387,4.267L156.013,178.2z"/>
	<path d="M165.4,280.6c-18.773,0-34.133-15.36-34.133-34.133s15.36-34.133,34.133-34.133s34.133,15.36,34.133,34.133
		S184.173,280.6,165.4,280.6z M165.4,229.4c-9.387,0-17.067,7.68-17.067,17.067s7.68,17.067,17.067,17.067
		c9.387,0,17.067-7.68,17.067-17.067S174.787,229.4,165.4,229.4z"/>
	<path d="M301.933,280.6c-18.773,0-34.133-15.36-34.133-34.133s15.36-34.133,34.133-34.133s34.133,15.36,34.133,34.133
		S320.707,280.6,301.933,280.6z M301.933,229.4c-9.387,0-17.067,7.68-17.067,17.067s7.68,17.067,17.067,17.067
		c9.387,0,17.067-7.68,17.067-17.067S311.32,229.4,301.933,229.4z"/>
	<path d="M348.013,255h-20.48c-5.12,0-8.533-3.413-8.533-8.533c0-9.387-7.68-17.067-17.067-17.067s-17.067,7.68-17.067,17.067
		c0,5.12-3.413,8.533-8.533,8.533H191c-5.12,0-8.533-3.413-8.533-8.533c0-9.387-7.68-17.067-17.067-17.067
		c-9.387,0-17.067,7.68-17.067,17.067c0,5.12-3.413,8.533-8.533,8.533h-20.48c-12.8,0-22.187-9.387-22.187-22.187v-33.28
		c0-11.947,9.387-22.187,22.187-22.187h229.547c11.947,0,22.187,9.387,22.187,22.187v33.28C370.2,245.613,360.813,255,348.013,255z
		 M335.213,237.933h13.653c2.56,0,5.12-2.56,5.12-5.12v-33.28c0-2.56-2.56-5.12-5.12-5.12H119.32c-2.56,0-5.12,2.56-5.12,5.12v33.28
		c0,2.56,2.56,5.12,5.12,5.12h13.653c3.413-14.507,17.067-25.6,33.28-25.6s29.013,11.093,33.28,25.6h70.827
		c3.413-14.507,17.067-25.6,33.28-25.6S330.947,223.427,335.213,237.933z"/>
	<path d="M233.667,340.333h-128c-5.12,0-8.533-3.413-8.533-8.533s3.413-8.533,8.533-8.533h128c5.12,0,8.533,3.413,8.533,8.533
		S238.787,340.333,233.667,340.333z"/>
	<path d="M233.667,383h-128c-5.12,0-8.533-3.413-8.533-8.533c0-5.12,3.413-8.533,8.533-8.533h128c5.12,0,8.533,3.413,8.533,8.533
		C242.2,379.587,238.787,383,233.667,383z"/>
	<path d="M233.667,425.667h-128c-5.12,0-8.533-3.413-8.533-8.533s3.413-8.533,8.533-8.533h128c5.12,0,8.533,3.413,8.533,8.533
		S238.787,425.667,233.667,425.667z"/>
	<path d="M233.667,195.267c-5.12,0-8.533-3.413-8.533-8.533V127c0-5.12,3.413-8.533,8.533-8.533c5.12,0,8.533,3.413,8.533,8.533
		v59.733C242.2,191.853,238.787,195.267,233.667,195.267z"/>
	<path d="M404.333,511h-358.4c-14.507,0-25.6-11.093-25.6-25.6V41.667c0-14.507,11.093-25.6,25.6-25.6h110.933
		C156.867,6.68,164.547-1,173.933-1H293.4c9.387,0,17.067,7.68,17.067,17.067H421.4c14.507,0,25.6,11.093,25.6,25.6V331.8
		c0,3.413-2.56,6.827-5.973,7.68c-3.413,0.853-7.68,0-9.387-2.56c-14.507-19.627-36.693-30.72-61.44-30.72
		c-2.56,0-5.973,0-8.533,0.853c-39.253,3.413-68.267,35.84-68.267,75.093V383c0,42.667,34.133,77.653,76.8,77.653
		c10.24,0,21.333-2.56,30.72-6.827c2.56-0.853,5.973-0.853,7.68,0.853c2.56,1.707,4.267,4.267,4.267,6.827v40.96
		C412.867,507.587,409.453,511,404.333,511z M45.933,33.133c-5.12,0-8.533,3.413-8.533,8.533V485.4c0,5.12,3.413,8.533,8.533,8.533
		H395.8v-20.48c-8.533,2.56-17.067,3.413-25.6,3.413c-52.053,0-93.867-41.813-93.867-93.867v-0.853
		c0-48.64,35.84-87.893,83.627-92.16c3.413,0,6.827-0.853,10.24-0.853c22.187,0,43.52,7.68,59.733,21.333v-268.8
		c0-5.12-3.413-8.533-8.533-8.533H301.933c-5.12,0-8.533-3.413-8.533-8.533v-8.533H173.933V24.6c0,5.12-3.413,8.533-8.533,8.533
		H45.933z"/>
	<path d="M370.2,476.867H71.533c-9.387,0-17.067-7.68-17.067-17.067V67.267c0-9.387,7.68-17.067,17.067-17.067H165.4
		c5.12,0,8.533,3.413,8.533,8.533v8.533H293.4v-8.533c0-5.12,3.413-8.533,8.533-8.533H395.8c9.387,0,17.067,7.68,17.067,17.067
		v237.227c0,2.56-1.707,5.973-4.267,6.827c-2.56,1.707-5.12,1.707-7.68,0.853c-12.8-5.12-26.453-7.68-39.253-5.973
		c-39.253,3.413-68.267,35.84-68.267,75.093v0.853V383c0,42.667,34.133,76.8,76.8,76.8c5.12,0,8.533,3.413,8.533,8.533
		C378.733,473.453,375.32,476.867,370.2,476.867z M71.533,67.267V459.8H316.44c-23.893-17.067-40.107-45.227-40.107-76.8v-0.853
		c0-48.64,35.84-87.893,83.627-92.16c12.8-1.707,24.747,0,35.84,2.56V67.267h-85.333c0,9.387-7.68,17.067-17.067,17.067H173.933
		c-9.387,0-17.067-7.68-17.067-17.067H71.533z"/>
	<path d="M395.8,476.867h-25.6c-5.12,0-8.533-3.413-8.533-8.533c0-5.12,3.413-8.533,8.533-8.533c10.24,0,20.48-1.707,30.72-5.973
		c2.56-0.853,5.973-0.853,8.533,0.853c2.56,1.707,3.413,5.12,3.413,8.533C411.16,470.893,403.48,476.867,395.8,476.867z"/>
</g>
</svg>